<mxfile host="app.diagrams.net" modified="2023-11-19T18:13:11.900Z" agent="Mozilla/5.0 (Windows NT 10.0; Win64; x64) AppleWebKit/537.36 (KHTML, like Gecko) Chrome/119.0.0.0 Safari/537.36" etag="YKkAqWsGe5jXzEPUXSld" version="22.1.3" type="device">
  <diagram name="Page-1" id="21jnijc0DjhG2oMBAwQu">
    <mxGraphModel dx="1572" dy="652" grid="1" gridSize="10" guides="1" tooltips="1" connect="1" arrows="1" fold="1" page="1" pageScale="1" pageWidth="850" pageHeight="1100" math="0" shadow="0">
      <root>
        <mxCell id="0" />
        <mxCell id="1" parent="0" />
        <mxCell id="REuhs8FXzTRRus5Cn1nG-1" value="input 3 numbers, print the biggest" style="text;html=1;strokeColor=none;fillColor=none;align=center;verticalAlign=middle;whiteSpace=wrap;rounded=0;" vertex="1" parent="1">
          <mxGeometry x="480" y="60" width="330" height="130" as="geometry" />
        </mxCell>
        <mxCell id="REuhs8FXzTRRus5Cn1nG-15" value="" style="edgeStyle=orthogonalEdgeStyle;rounded=0;orthogonalLoop=1;jettySize=auto;html=1;" edge="1" parent="1" source="REuhs8FXzTRRus5Cn1nG-2" target="REuhs8FXzTRRus5Cn1nG-4">
          <mxGeometry relative="1" as="geometry" />
        </mxCell>
        <mxCell id="REuhs8FXzTRRus5Cn1nG-2" value="START" style="rounded=1;whiteSpace=wrap;html=1;" vertex="1" parent="1">
          <mxGeometry x="350" y="50" width="120" height="60" as="geometry" />
        </mxCell>
        <mxCell id="REuhs8FXzTRRus5Cn1nG-3" value="STOP" style="rounded=1;whiteSpace=wrap;html=1;" vertex="1" parent="1">
          <mxGeometry x="355" y="630" width="120" height="60" as="geometry" />
        </mxCell>
        <mxCell id="REuhs8FXzTRRus5Cn1nG-16" value="" style="edgeStyle=orthogonalEdgeStyle;rounded=0;orthogonalLoop=1;jettySize=auto;html=1;" edge="1" parent="1" source="REuhs8FXzTRRus5Cn1nG-4" target="REuhs8FXzTRRus5Cn1nG-5">
          <mxGeometry relative="1" as="geometry" />
        </mxCell>
        <mxCell id="REuhs8FXzTRRus5Cn1nG-4" value="&quot;Please enter 3 numbers&quot;" style="shape=document;whiteSpace=wrap;html=1;boundedLbl=1;" vertex="1" parent="1">
          <mxGeometry x="350" y="140" width="120" height="80" as="geometry" />
        </mxCell>
        <mxCell id="REuhs8FXzTRRus5Cn1nG-17" value="" style="edgeStyle=orthogonalEdgeStyle;rounded=0;orthogonalLoop=1;jettySize=auto;html=1;" edge="1" parent="1" source="REuhs8FXzTRRus5Cn1nG-5" target="REuhs8FXzTRRus5Cn1nG-6">
          <mxGeometry relative="1" as="geometry" />
        </mxCell>
        <mxCell id="REuhs8FXzTRRus5Cn1nG-5" value="a, b, c" style="shape=card;whiteSpace=wrap;html=1;" vertex="1" parent="1">
          <mxGeometry x="370" y="250" width="80" height="60" as="geometry" />
        </mxCell>
        <mxCell id="REuhs8FXzTRRus5Cn1nG-7" style="edgeStyle=orthogonalEdgeStyle;rounded=0;orthogonalLoop=1;jettySize=auto;html=1;" edge="1" parent="1" source="REuhs8FXzTRRus5Cn1nG-6">
          <mxGeometry relative="1" as="geometry">
            <mxPoint x="280" y="400" as="targetPoint" />
          </mxGeometry>
        </mxCell>
        <mxCell id="REuhs8FXzTRRus5Cn1nG-9" value="YES" style="edgeLabel;html=1;align=center;verticalAlign=middle;resizable=0;points=[];" vertex="1" connectable="0" parent="REuhs8FXzTRRus5Cn1nG-7">
          <mxGeometry x="-0.1813" y="5" relative="1" as="geometry">
            <mxPoint as="offset" />
          </mxGeometry>
        </mxCell>
        <mxCell id="REuhs8FXzTRRus5Cn1nG-8" style="edgeStyle=orthogonalEdgeStyle;rounded=0;orthogonalLoop=1;jettySize=auto;html=1;" edge="1" parent="1" source="REuhs8FXzTRRus5Cn1nG-6">
          <mxGeometry relative="1" as="geometry">
            <mxPoint x="550" y="400" as="targetPoint" />
          </mxGeometry>
        </mxCell>
        <mxCell id="REuhs8FXzTRRus5Cn1nG-10" value="NO" style="edgeLabel;html=1;align=center;verticalAlign=middle;resizable=0;points=[];" vertex="1" connectable="0" parent="REuhs8FXzTRRus5Cn1nG-8">
          <mxGeometry x="-0.0729" y="-2" relative="1" as="geometry">
            <mxPoint as="offset" />
          </mxGeometry>
        </mxCell>
        <mxCell id="REuhs8FXzTRRus5Cn1nG-6" value="a &amp;gt; b" style="rhombus;whiteSpace=wrap;html=1;" vertex="1" parent="1">
          <mxGeometry x="355" y="350" width="110" height="100" as="geometry" />
        </mxCell>
        <mxCell id="REuhs8FXzTRRus5Cn1nG-13" style="edgeStyle=orthogonalEdgeStyle;rounded=0;orthogonalLoop=1;jettySize=auto;html=1;exitX=0;exitY=0.5;exitDx=0;exitDy=0;" edge="1" parent="1" source="REuhs8FXzTRRus5Cn1nG-18">
          <mxGeometry relative="1" as="geometry">
            <mxPoint x="127.50000000000023" y="410" as="sourcePoint" />
            <mxPoint x="130" y="550" as="targetPoint" />
            <Array as="points">
              <mxPoint x="130" y="400" />
            </Array>
          </mxGeometry>
        </mxCell>
        <mxCell id="REuhs8FXzTRRus5Cn1nG-19" value="YES" style="edgeLabel;html=1;align=center;verticalAlign=middle;resizable=0;points=[];" vertex="1" connectable="0" parent="REuhs8FXzTRRus5Cn1nG-13">
          <mxGeometry x="-0.6849" relative="1" as="geometry">
            <mxPoint as="offset" />
          </mxGeometry>
        </mxCell>
        <mxCell id="REuhs8FXzTRRus5Cn1nG-21" style="edgeStyle=orthogonalEdgeStyle;rounded=0;orthogonalLoop=1;jettySize=auto;html=1;" edge="1" parent="1" source="REuhs8FXzTRRus5Cn1nG-18">
          <mxGeometry relative="1" as="geometry">
            <mxPoint x="225.00000000000023" y="540" as="targetPoint" />
          </mxGeometry>
        </mxCell>
        <mxCell id="REuhs8FXzTRRus5Cn1nG-23" value="NO" style="edgeLabel;html=1;align=center;verticalAlign=middle;resizable=0;points=[];" vertex="1" connectable="0" parent="REuhs8FXzTRRus5Cn1nG-21">
          <mxGeometry x="-0.1602" y="-2" relative="1" as="geometry">
            <mxPoint as="offset" />
          </mxGeometry>
        </mxCell>
        <mxCell id="REuhs8FXzTRRus5Cn1nG-18" value="a &amp;gt; c" style="rhombus;whiteSpace=wrap;html=1;" vertex="1" parent="1">
          <mxGeometry x="170" y="350" width="110" height="100" as="geometry" />
        </mxCell>
        <mxCell id="REuhs8FXzTRRus5Cn1nG-32" style="edgeStyle=orthogonalEdgeStyle;rounded=0;orthogonalLoop=1;jettySize=auto;html=1;" edge="1" parent="1" source="REuhs8FXzTRRus5Cn1nG-20">
          <mxGeometry relative="1" as="geometry">
            <mxPoint x="320" y="660" as="targetPoint" />
            <Array as="points">
              <mxPoint x="138" y="630" />
              <mxPoint x="300" y="630" />
              <mxPoint x="300" y="670" />
            </Array>
          </mxGeometry>
        </mxCell>
        <mxCell id="REuhs8FXzTRRus5Cn1nG-20" value="a" style="shape=document;whiteSpace=wrap;html=1;boundedLbl=1;" vertex="1" parent="1">
          <mxGeometry x="105" y="550" width="65" height="40" as="geometry" />
        </mxCell>
        <mxCell id="REuhs8FXzTRRus5Cn1nG-31" style="edgeStyle=orthogonalEdgeStyle;rounded=0;orthogonalLoop=1;jettySize=auto;html=1;entryX=0;entryY=0.5;entryDx=0;entryDy=0;" edge="1" parent="1" source="REuhs8FXzTRRus5Cn1nG-22" target="REuhs8FXzTRRus5Cn1nG-3">
          <mxGeometry relative="1" as="geometry" />
        </mxCell>
        <mxCell id="REuhs8FXzTRRus5Cn1nG-22" value="c" style="shape=document;whiteSpace=wrap;html=1;boundedLbl=1;" vertex="1" parent="1">
          <mxGeometry x="190" y="540" width="65" height="40" as="geometry" />
        </mxCell>
        <mxCell id="REuhs8FXzTRRus5Cn1nG-26" style="edgeStyle=orthogonalEdgeStyle;rounded=0;orthogonalLoop=1;jettySize=auto;html=1;entryX=0.5;entryY=0;entryDx=0;entryDy=0;" edge="1" parent="1" source="REuhs8FXzTRRus5Cn1nG-24" target="REuhs8FXzTRRus5Cn1nG-25">
          <mxGeometry relative="1" as="geometry" />
        </mxCell>
        <mxCell id="REuhs8FXzTRRus5Cn1nG-27" value="YES" style="edgeLabel;html=1;align=center;verticalAlign=middle;resizable=0;points=[];" vertex="1" connectable="0" parent="REuhs8FXzTRRus5Cn1nG-26">
          <mxGeometry x="-0.8758" y="-1" relative="1" as="geometry">
            <mxPoint as="offset" />
          </mxGeometry>
        </mxCell>
        <mxCell id="REuhs8FXzTRRus5Cn1nG-29" style="edgeStyle=orthogonalEdgeStyle;rounded=0;orthogonalLoop=1;jettySize=auto;html=1;entryX=0.5;entryY=0;entryDx=0;entryDy=0;" edge="1" parent="1" source="REuhs8FXzTRRus5Cn1nG-24" target="REuhs8FXzTRRus5Cn1nG-28">
          <mxGeometry relative="1" as="geometry" />
        </mxCell>
        <mxCell id="REuhs8FXzTRRus5Cn1nG-30" value="NO" style="edgeLabel;html=1;align=center;verticalAlign=middle;resizable=0;points=[];" vertex="1" connectable="0" parent="REuhs8FXzTRRus5Cn1nG-29">
          <mxGeometry x="-0.3625" y="-1" relative="1" as="geometry">
            <mxPoint as="offset" />
          </mxGeometry>
        </mxCell>
        <mxCell id="REuhs8FXzTRRus5Cn1nG-24" value="b &amp;gt; c" style="rhombus;whiteSpace=wrap;html=1;" vertex="1" parent="1">
          <mxGeometry x="550" y="350" width="110" height="100" as="geometry" />
        </mxCell>
        <mxCell id="REuhs8FXzTRRus5Cn1nG-34" style="edgeStyle=orthogonalEdgeStyle;rounded=0;orthogonalLoop=1;jettySize=auto;html=1;" edge="1" parent="1" source="REuhs8FXzTRRus5Cn1nG-25">
          <mxGeometry relative="1" as="geometry">
            <mxPoint x="480" y="680" as="targetPoint" />
            <Array as="points">
              <mxPoint x="713" y="670" />
              <mxPoint x="481" y="670" />
              <mxPoint x="481" y="680" />
            </Array>
          </mxGeometry>
        </mxCell>
        <mxCell id="REuhs8FXzTRRus5Cn1nG-25" value="b" style="shape=document;whiteSpace=wrap;html=1;boundedLbl=1;" vertex="1" parent="1">
          <mxGeometry x="680" y="530" width="65" height="40" as="geometry" />
        </mxCell>
        <mxCell id="REuhs8FXzTRRus5Cn1nG-33" style="edgeStyle=orthogonalEdgeStyle;rounded=0;orthogonalLoop=1;jettySize=auto;html=1;entryX=1;entryY=0.5;entryDx=0;entryDy=0;" edge="1" parent="1" source="REuhs8FXzTRRus5Cn1nG-28" target="REuhs8FXzTRRus5Cn1nG-3">
          <mxGeometry relative="1" as="geometry" />
        </mxCell>
        <mxCell id="REuhs8FXzTRRus5Cn1nG-28" value="c" style="shape=document;whiteSpace=wrap;html=1;boundedLbl=1;" vertex="1" parent="1">
          <mxGeometry x="572.5" y="530" width="65" height="40" as="geometry" />
        </mxCell>
      </root>
    </mxGraphModel>
  </diagram>
</mxfile>
